HIERARCHY
ROOT root
{
	OFFSET 0.000000 0.000000 0.000000
	CHANNELS 6 Xposition Yposition Zposition Zrotation Yrotation Xrotation
	JOINT lhip
	{
		OFFSET 0.058581 -0.082280 -0.017664
		CHANNELS 3 Zrotation Yrotation Xrotation
		JOINT lknee
		{
			OFFSET 0.043451 -0.386469 0.008037
			CHANNELS 3 Zrotation Yrotation Xrotation
			JOINT lankle
			{
				OFFSET -0.014790 -0.426874 -0.037428
				CHANNELS 3 Zrotation Yrotation Xrotation
				JOINT ltoe
				{
					OFFSET 0.041054 -0.060286 0.122042
					CHANNELS 3 Zrotation Yrotation Xrotation
					End Site
					{
						OFFSET 0.000000 0.000000 0.000000
					}
				}
			}
		}
	}
	JOINT rhip
	{
		OFFSET -0.060310 -0.090513 -0.013543
		CHANNELS 3 Zrotation Yrotation Xrotation
		JOINT rknee
		{
			OFFSET -0.043257 -0.383688 -0.004843
			CHANNELS 3 Zrotation Yrotation Xrotation
			JOINT rankle
			{
				OFFSET 0.019056 -0.420046 -0.034562
				CHANNELS 3 Zrotation Yrotation Xrotation
				JOINT rtoe
				{
					OFFSET -0.034840 -0.062106 0.130323
					CHANNELS 3 Zrotation Yrotation Xrotation
					End Site
					{
						OFFSET 0.000000 0.000000 0.000000
					}
				}
			}
		}
	}
	JOINT lowerback
	{
		OFFSET 0.004439 0.124404 -0.038385
		CHANNELS 3 Zrotation Yrotation Xrotation
		JOINT upperback
		{
			OFFSET 0.004488 0.137956 0.026820
			CHANNELS 3 Zrotation Yrotation Xrotation
			JOINT chest
			{
				OFFSET -0.002265 0.056032 0.002855
				CHANNELS 3 Zrotation Yrotation Xrotation
				JOINT lowerneck
				{
					OFFSET -0.013390 0.211636 -0.033468
					CHANNELS 3 Zrotation Yrotation Xrotation
					JOINT upperneck
					{
						OFFSET 0.010113 0.088937 0.050410
						CHANNELS 3 Zrotation Yrotation Xrotation
						End Site
						{
							OFFSET 0.000000 0.000000 0.000000
						}
					}
				}
				JOINT lclavicle
				{
					OFFSET 0.071702 0.114000 -0.018898
					CHANNELS 3 Zrotation Yrotation Xrotation
					JOINT lshoulder
					{
						OFFSET 0.122921 0.045205 -0.019046
						CHANNELS 3 Zrotation Yrotation Xrotation
						JOINT lelbow
						{
							OFFSET 0.255332 -0.015649 -0.022946
							CHANNELS 3 Zrotation Yrotation Xrotation
							JOINT lwrist
							{
								OFFSET 0.265709 0.012698 -0.007375
								CHANNELS 3 Zrotation Yrotation Xrotation
								End Site
								{
									OFFSET 0.000000 0.000000 0.000000
								}
							}
						}
					}
				}
				JOINT rclavicle
				{
					OFFSET -0.082954 0.112472 -0.023707
					CHANNELS 3 Zrotation Yrotation Xrotation
					JOINT rshoulder
					{
						OFFSET -0.113228 0.046853 -0.008472
						CHANNELS 3 Zrotation Yrotation Xrotation
						JOINT relbow
						{
							OFFSET -0.260127 -0.014369 -0.031269
							CHANNELS 3 Zrotation Yrotation Xrotation
							JOINT rwrist
							{
								OFFSET -0.269108 0.006794 -0.006027
								CHANNELS 3 Zrotation Yrotation Xrotation
								End Site
								{
									OFFSET 0.000000 0.000000 0.000000
								}
							}
						}
					}
				}
			}
		}
	}
}
MOTION
Frames: 8
Frame Time: 0.033333
0.013709 0.236441 0.990689 87.782371 0.757447 88.229613 5.210616 0.024289 -6.040224 -3.036974 -6.773322 17.542539 0.906216 10.843275 -11.029154 0.000000 -0.000000 0.000000 -4.133882 -0.340366 -6.128996 -0.863347 3.935620 15.732504 1.523254 -5.749897 -9.370290 0.000000 -0.000000 0.000000 -0.865126 2.480219 9.011551 -1.147672 -2.538270 6.613791 -2.554014 0.251491 -8.589509 -1.013113 -10.245000 -2.350671 3.220041 -8.437233 7.377010 -30.995676 -1.696433 2.132477 -49.686319 -3.357418 13.965682 15.127809 -30.444008 -3.369883 -5.162254 -11.344250 1.891913 28.930340 9.844345 4.443376 51.552569 5.785888 16.631231 -4.875211 24.032672 4.837773 6.750985 7.289210 5.698469 
0.013481 0.236419 0.990659 87.733895 0.765236 88.226006 5.239748 0.045135 -6.017815 -3.111028 -6.874080 17.480102 0.852911 11.009896 -10.977853 0.000000 -0.000000 0.000000 -4.120184 -0.280240 -6.149339 -0.841056 4.003332 15.729913 1.564450 -5.842643 -9.309967 0.000000 -0.000000 0.000000 -0.749041 2.592888 9.111230 -1.228199 -2.590687 6.417118 -2.555953 0.252257 -8.473950 -1.158752 -10.459661 -2.243569 3.324573 -8.201698 7.278785 -31.090667 -1.673854 2.301829 -49.564493 -3.479662 13.839560 15.001965 -30.442283 -3.242004 -5.133914 -11.498850 1.880058 28.917466 9.781362 4.446320 51.585272 5.826887 16.496808 -4.882951 23.951834 4.792933 6.600975 7.377463 5.934421 
0.013297 0.236287 0.990704 87.770818 0.761175 88.248907 5.244674 0.026709 -6.070826 -3.125492 -6.901905 17.493364 0.852356 11.010017 -10.946789 0.000000 -0.000000 0.000000 -4.131036 -0.293636 -6.202326 -0.825090 3.974312 15.765420 1.565426 -5.848248 -9.312028 0.000000 -0.000000 0.000000 -0.743368 2.573958 9.130110 -1.235914 -2.610792 6.370892 -2.557530 0.248308 -8.471044 -1.137619 -10.457633 -2.264264 3.354808 -8.152571 7.293994 -31.142415 -1.664725 2.346813 -49.557336 -3.435745 13.818084 15.064421 -30.458474 -3.270116 -5.125917 -11.472698 1.819714 28.884736 9.766141 4.438424 51.620115 5.790146 16.490198 -4.896323 23.998689 4.829964 6.643088 7.350833 5.891657 
0.013202 0.236178 0.990684 87.739755 0.775378 88.254014 5.244401 0.016341 -6.095548 -3.090765 -6.894813 17.528802 0.863946 11.037971 -10.941343 0.000000 -0.000000 0.000000 -4.112055 -0.260381 -6.239804 -0.801640 3.973649 15.795439 1.582894 -5.855651 -9.298841 0.000000 -0.000000 0.000000 -0.721965 2.587267 9.125647 -1.228607 -2.599792 6.383214 -2.552865 0.267837 -8.481334 -1.158436 -10.425592 -2.250075 3.345390 -8.128617 7.287097 -31.134318 -1.659680 2.353731 -49.638396 -3.408793 13.826390 15.111406 -30.395428 -3.319068 -5.159018 -11.427727 1.800262 28.862657 9.783530 4.466327 51.601415 5.754227 16.513328 -4.920328 24.043701 4.833684 6.657581 7.339314 5.839497 
0.013089 0.236074 0.990692 87.766771 0.775236 88.264304 5.252439 0.051666 -6.146064 -3.109396 -6.933362 17.574619 0.852348 11.023617 -10.962302 0.000000 -0.000000 0.000000 -4.100449 -0.265304 -6.266821 -0.820485 3.940092 15.810745 1.548515 -5.867650 -9.314387 0.000000 -0.000000 0.000000 -0.723345 2.572317 9.157011 -1.219860 -2.571333 6.320884 -2.555751 0.248399 -8.483376 -1.148582 -10.431488 -2.248010 3.317196 -8.112598 7.351179 -31.153053 -1.644920 2.334270 -49.621407 -3.369294 13.858884 15.098580 -30.396959 -3.355874 -5.140941 -11.341272 1.744430 28.885647 9.737615 4.420044 51.561395 5.725932 16.543121 -4.886176 24.036854 4.875316 6.660085 7.319986 5.845639 
0.012884 0.236015 0.990712 87.773548 0.781666 88.281548 5.258720 0.030156 -6.193413 -3.103263 -6.934670 17.591253 0.885740 11.019075 -10.932175 0.000000 -0.000000 0.000000 -4.091861 -0.261300 -6.310996 -0.804050 3.946227 15.843452 1.543994 -5.873830 -9.313193 0.000000 -0.000000 0.000000 -0.698658 2.587128 9.168205 -1.220323 -2.576206 6.301390 -2.576172 0.257530 -8.477839 -1.144959 -10.460976 -2.259047 3.314796 -8.108283 7.368518 -31.165653 -1.588636 2.278156 -49.595793 -3.390700 13.886246 15.103926 -30.414814 -3.300669 -5.179495 -11.330043 1.796324 28.914056 9.711674 4.393194 51.526194 5.729501 16.550704 -4.944415 24.011001 4.859866 6.687322 7.304769 5.908248 
0.012858 0.236039 0.990745 87.771711 0.783601 88.234445 5.277715 0.006595 -6.125838 -3.116311 -6.897003 17.569910 0.847698 11.041686 -10.913878 0.000000 -0.000000 0.000000 -4.086459 -0.257521 -6.252383 -0.815192 3.955123 15.819795 1.544438 -5.895534 -9.297671 0.000000 -0.000000 0.000000 -0.656158 2.589895 9.221887 -1.225384 -2.596595 6.286477 -2.593029 0.253889 -8.420163 -1.166740 -10.445902 -2.200557 3.351295 -8.112588 7.157948 -31.197513 -1.570528 2.200458 -49.537628 -3.375490 13.890167 15.091899 -30.434437 -3.271636 -5.257743 -11.316186 1.841268 28.912224 9.722723 4.305240 51.468676 5.724602 16.543768 -4.945965 24.047737 4.812388 6.744934 7.317093 5.883563 
0.012769 0.235998 0.990790 87.797370 0.789128 88.285981 5.265496 0.053253 -6.208315 -3.089832 -6.933239 17.587259 0.804923 11.023063 -10.936967 0.000000 -0.000000 0.000000 -4.074510 -0.270090 -6.328710 -0.820590 3.948753 15.844159 1.541439 -5.886904 -9.257174 0.000000 -0.000000 0.000000 -0.661067 2.575284 9.127972 -1.172893 -2.639952 6.373839 -2.613899 0.249917 -8.356665 -1.154519 -10.379002 -2.126773 3.494097 -8.126527 6.550245 -31.228687 -1.503102 1.887826 -49.530612 -3.303415 13.983672 15.140118 -30.414482 -3.429243 -5.322756 -11.255302 2.119237 28.975795 9.698093 4.052600 51.318117 5.714123 16.559870 -4.889244 24.010188 4.788190 6.779199 7.302818 6.247147 
